<svg xmlns="http://www.w3.org/2000/svg" xmlns:xlink="http://www.w3.org/1999/xlink" xmlns:lucid="lucid" width="1760" height="525.61"><g transform="translate(-55.19999999999993 -420)" lucid:page-tab-id="0_0"><path d="M363.2 580c17.67 0 32 17.9 32 40s-14.33 40-32 40h-96c-17.67 0-32-17.9-32-40s14.33-40 32-40z" stroke="#5e5e5e" stroke-width="5" fill="#fff"/><use xlink:href="#a" transform="matrix(1,0,0,1,240.19999999999993,585.0000000035395) translate(34.32098765432099 39.65277777777778)"/><path d="M643.2 580c17.67 0 32 17.9 32 40s-14.33 40-32 40h-96c-17.67 0-32-17.9-32-40s14.33-40 32-40z" stroke="#5e5e5e" stroke-width="5" fill="#fff"/><use xlink:href="#b" transform="matrix(1,0,0,1,520.1999999999999,585) translate(52.80864197530865 39.65277777777777)"/><path d="M1043.2 580c17.67 0 32 17.9 32 40s-14.33 40-32 40h-96c-17.67 0-32-17.9-32-40s14.33-40 32-40z" stroke="#5e5e5e" stroke-width="5" fill="#fff"/><use xlink:href="#c" transform="matrix(1,0,0,1,920.1999999999998,585) translate(23.888888888888886 39.65277777777778)"/><path d="M1403.2 580c17.67 0 32 17.9 32 40s-14.33 40-32 40h-96c-17.67 0-32-17.9-32-40s14.33-40 32-40z" stroke="#5e5e5e" stroke-width="5" fill="#fff"/><use xlink:href="#d" transform="matrix(1,0,0,1,1280.1999999999998,585) translate(31.23456790123457 39.65277777777778)"/><path d="M1763.2 580c17.67 0 32 17.9 32 40s-14.33 40-32 40h-96c-17.67 0-32-17.9-32-40s14.33-40 32-40z" stroke="#5e5e5e" stroke-width="5" fill="#fff"/><use xlink:href="#e" transform="matrix(1,0,0,1,1640.1999999999998,585) translate(21.388888888888886 39.65277777777778)"/><path d="M843.2 780c17.67 0 32 17.9 32 40s-14.33 40-32 40h-96c-17.67 0-32-17.9-32-40s14.33-40 32-40z" stroke="#5e5e5e" stroke-width="5" fill="#fff"/><use xlink:href="#f" transform="matrix(1,0,0,1,720.1999999999999,785) translate(28.148148148148138 39.65277777777778)"/><path d="M399.7 620h109.36" stroke="#5e5e5e" stroke-width="4" fill="none"/><path d="M399.75 622h-2.17l.12-1.97-.07-2.03h2.12z" fill="#5e5e5e"/><path d="M491.55 630.18L508.77 620l-17.22-10.18M679.7 620h229.36" stroke="#5e5e5e" stroke-width="4" fill="none"/><path d="M679.75 622h-2.17l.12-1.97-.07-2.03h2.12z" fill="#5e5e5e"/><path d="M891.55 630.18L908.77 620l-17.22-10.18M1079.7 620h189.36" stroke="#5e5e5e" stroke-width="4" fill="none"/><path d="M1079.75 622h-2.17l.12-1.97-.07-2.03h2.12z" fill="#5e5e5e"/><path d="M1251.55 630.18l17.22-10.18-17.22-10.18M1439.7 620h189.36" stroke="#5e5e5e" stroke-width="4" fill="none"/><path d="M1439.75 622h-2.17l.12-1.97-.07-2.03h2.12z" fill="#5e5e5e"/><path d="M1611.55 630.18l17.22-10.18-17.22-10.18M315.2 664.5V814c0 3.3 2.7 6 6 6h387.86" stroke="#5e5e5e" stroke-width="4" fill="none"/><path d="M317.2 664.55h-4v-2.05h4z" fill="#5e5e5e"/><path d="M691.55 830.18L708.77 820l-17.22-10.18M595.2 664.5v16c0 3.3-2.7 6-6 6h-8c-3.3 0-6 2.7-6 6V744c0 3.3 2.7 6 6 6h159.74c3.3 0 6 2.7 6 6v17.87" stroke="#5e5e5e" stroke-width="4" fill="none"/><path d="M597.2 664.55h-4v-2.05h4z" fill="#5e5e5e"/><path d="M736.76 756.36l10.18 17.22 10.18-17.22M995.2 664.5V744c0 3.3-2.7 6-6 6H845.24c-3.32 0-6 2.7-6 6v17.86" stroke="#5e5e5e" stroke-width="4" fill="none"/><path d="M997.2 664.55h-4v-2.05h4z" fill="#5e5e5e"/><path d="M829.06 756.36l10.18 17.2 10.18-17.2M1355.2 664.5V814c0 3.3-2.7 6-6 6H881.34" stroke="#5e5e5e" stroke-width="4" fill="none"/><path d="M1357.2 664.55h-4v-2.05h4z" fill="#5e5e5e"/><path d="M898.85 809.82L881.63 820l17.22 10.18" stroke="#5e5e5e" stroke-width="4" fill="none"/><path d="M775.2 720.7c0-.4.3-.7.7-.7.4 0 .7.3.7.7v2.34c0 .4-.3.7-.7.7-.4 0-.7-.3-.7-.7zM575.2 673c0-3.3 2.7-6 6-6h168c3.3 0 6 2.7 6 6v94c0 3.3-2.7 6-6 6h-168c-3.3 0-6-2.7-6-6z" stroke="#000" stroke-opacity="0" stroke-width="3" fill="#fff" fill-opacity="0"/><use xlink:href="#g" transform="matrix(1,0,0,1,580.1999999999999,672) translate(26.592592592592602 36.33333333333333)"/><use xlink:href="#h" transform="matrix(1,0,0,1,580.1999999999999,672) translate(119.77777777777777 36.33333333333333)"/><use xlink:href="#i" transform="matrix(1,0,0,1,580.1999999999999,672) translate(136 36.33333333333333)"/><use xlink:href="#j" transform="matrix(1,0,0,1,580.1999999999999,672) translate(8.629629629629633 68.33333333333333)"/><use xlink:href="#k" transform="matrix(1,0,0,1,580.1999999999999,672) translate(152.55555555555554 68.33333333333333)"/><path d="M835.2 716c0-3.3 2.7-6 6-6h128c3.3 0 6 2.7 6 6v19.87c0 3.3-2.7 6-6 6h-128c-3.3 0-6-2.7-6-6z" stroke="#000" stroke-opacity="0" stroke-width="3" fill="#fff" fill-opacity="0"/><use xlink:href="#g" transform="matrix(1,0,0,1,840.1999999999999,715) translate(14.000000000000014 21.333333333333332)"/><use xlink:href="#k" transform="matrix(1,0,0,1,840.1999999999999,715) translate(107.18518518518518 21.333333333333332)"/><path d="M355.2 764c0-3.3 2.7-6 6-6h248c3.3 0 6 2.7 6 6v62c0 3.3-2.7 6-6 6h-248c-3.3 0-6-2.7-6-6z" stroke="#000" stroke-opacity="0" stroke-width="3" fill="#fff" fill-opacity="0"/><use xlink:href="#g" transform="matrix(1,0,0,1,360.19999999999993,763) translate(66.59259259259261 21.333333333333332)"/><use xlink:href="#h" transform="matrix(1,0,0,1,360.19999999999993,763) translate(159.77777777777777 21.333333333333332)"/><use xlink:href="#i" transform="matrix(1,0,0,1,360.19999999999993,763) translate(176 21.333333333333332)"/><use xlink:href="#j" transform="matrix(1,0,0,1,360.19999999999993,763) translate(48.62962962962963 53.33333333333333)"/><use xlink:href="#k" transform="matrix(1,0,0,1,360.19999999999993,763) translate(192.55555555555554 53.33333333333333)"/><path d="M1055.2 791c0-3.3 2.7-6 6-6h128c3.3 0 6 2.7 6 6v18c0 3.3-2.7 6-6 6h-128c-3.3 0-6-2.7-6-6z" stroke="#000" stroke-opacity="0" stroke-width="3" fill="#fff" fill-opacity="0"/><use xlink:href="#g" transform="matrix(1,0,0,1,1060.1999999999998,790) translate(14.000000000000014 21.333333333333332)"/><use xlink:href="#k" transform="matrix(1,0,0,1,1060.1999999999998,790) translate(107.18518518518518 21.333333333333332)"/><path d="M395.2 585c0-3.3 2.7-6 6-6h88c3.3 0 6 2.7 6 6v30c0 3.3-2.7 6-6 6h-88c-3.3 0-6-2.7-6-6z" stroke="#000" stroke-opacity="0" stroke-width="3" fill="#fff" fill-opacity="0"/><use xlink:href="#l" transform="matrix(1,0,0,1,400.19999999999993,584) translate(11 23.333333333333332)"/><use xlink:href="#k" transform="matrix(1,0,0,1,400.19999999999993,584) translate(70.18518518518519 23.333333333333332)"/><path d="M695.2 591c0-3.3 2.7-6 6-6h168.7c3.32 0 6 2.7 6 6v18c0 3.3-2.68 6-6 6H701.2c-3.3 0-6-2.7-6-6z" stroke="#000" stroke-opacity="0" stroke-width="3" fill="#fff" fill-opacity="0"/><use xlink:href="#m" transform="matrix(1,0,0,1,700.1999999999999,590) translate(29.388888888888907 21.333333333333332)"/><use xlink:href="#k" transform="matrix(1,0,0,1,700.1999999999999,590) translate(132.79629629629628 21.333333333333332)"/><path d="M1075.9 572.33c0-3.3 2.7-6 6-6h167.3c3.3 0 6 2.7 6 6v62c0 3.32-2.7 6-6 6h-167.3c-3.3 0-6-2.68-6-6z" stroke="#000" stroke-opacity="0" stroke-width="3" fill="#fff" fill-opacity="0"/><use xlink:href="#n" transform="matrix(1,0,0,1,1080.9025411061284,571.3333333333333) translate(8.629629629629633 37.33333333333333)"/><use xlink:href="#k" transform="matrix(1,0,0,1,1080.9025411061284,571.3333333333333) translate(152.55555555555554 37.33333333333333)"/><path d="M1435.2 591c0-3.3 2.7-6 6-6h168c3.3 0 6 2.7 6 6v18c0 3.3-2.7 6-6 6h-168c-3.3 0-6-2.7-6-6z" stroke="#000" stroke-opacity="0" stroke-width="3" fill="#fff" fill-opacity="0"/><use xlink:href="#n" transform="matrix(1,0,0,1,1440.1999999999998,590) translate(8.629629629629633 21.333333333333332)"/><use xlink:href="#k" transform="matrix(1,0,0,1,1440.1999999999998,590) translate(152.55555555555554 21.333333333333332)"/><path d="M315.2 575.5V486c0-3.3 2.7-6 6-6h667.4c3.32 0 6 2.7 6 6v87.86" stroke="#5e5e5e" stroke-width="4" fill="none"/><path d="M317.2 577.5h-4v-2.05h4z" fill="#5e5e5e"/><path d="M984.43 556.36l10.18 17.2 10.2-17.2" stroke="#5e5e5e" stroke-width="4" fill="none"/><path d="M555.2 446c0-3.3 2.7-6 6-6h148c3.3 0 6 2.7 6 6v30c0 3.3-2.7 6-6 6h-148c-3.3 0-6-2.7-6-6z" stroke="#000" stroke-opacity="0" stroke-width="3" fill="#fff" fill-opacity="0"/><use xlink:href="#m" transform="matrix(1,0,0,1,560.1999999999999,445) translate(18.888888888888907 23.333333333333332)"/><use xlink:href="#k" transform="matrix(1,0,0,1,560.1999999999999,445) translate(122.29629629629628 23.333333333333332)"/><path d="M120.8 620c0 12.6-10.2 22.8-22.8 22.8-12.6 0-22.8-10.2-22.8-22.8 0-12.6 10.2-22.8 22.8-22.8 12.6 0 22.8 10.2 22.8 22.8z" stroke="#5e5e5e" stroke-width="5" fill="#a3d977"/><path d="M124.8 620h105.17" stroke="#5e5e5e" stroke-width="3" fill="none"/><path d="M124.85 621.5h-1.7l.17-1.4-.02-1.14-.07-.46h1.62z" fill="#5e5e5e"/><path d="M212.54 630.18l17.2-10.18-17.2-10.18" stroke="#5e5e5e" stroke-width="3" fill="none"/><path d="M1738 902.8c0 12.6-10.2 22.8-22.8 22.8-12.6 0-22.8-10.2-22.8-22.8 0-12.6 10.2-22.8 22.8-22.8 12.6 0 22.8 10.2 22.8 22.8z" stroke="#5e5e5e" stroke-width="3" fill="#fff"/><path d="M1725.9 902.8c0 5.53-4.8 10-10.7 10-5.9 0-10.7-4.47-10.7-10 0-5.52 4.8-10 10.7-10 5.9 0 10.7 4.48 10.7 10z" fill="#834187"/><path d="M1719.15 912l-1 .42-2.95.4-2.96-.4-1-.4m-5.8-5.3l-.62-1.48-.32-2.43.32-2.43.6-1.47m5.83-5.3l1-.4 2.95-.4 2.96.4 1 .4m5.8 5.3l.62 1.47.32 2.44-.32 2.44-.6 1.48" stroke="#834187" stroke-width="3" fill="none"/><path d="M795.2 864.5v32.3c0 3.32 2.7 6 6 6h886.06" stroke="#5e5e5e" stroke-width="4" fill="none"/><path d="M797.2 864.55h-4v-2.05h4z" fill="#5e5e5e"/><path d="M1669.75 913l17.2-10.2-17.2-10.17M1715.2 664.5v210.36" stroke="#5e5e5e" stroke-width="4" fill="none"/><path d="M1717.2 664.55h-4v-2.05h4z" fill="#5e5e5e"/><path d="M1705.02 857.36l10.18 17.2 10.18-17.2" stroke="#5e5e5e" stroke-width="4" fill="none"/><defs><path fill="#333" d="M140-251c81 0 123 46 123 126C263-46 219 4 140 4 59 4 17-45 17-125s42-126 123-126zm0 227c63 0 89-41 89-101s-29-99-89-99c-61 0-89 39-89 99S79-25 140-24" id="o"/><path fill="#333" d="M114-163C36-179 61-72 57 0H25l-1-190h30c1 12-1 29 2 39 6-27 23-49 58-41v29" id="p"/><path fill="#333" d="M85-194c31 0 48 13 60 33l-1-100h32l1 261h-30c-2-10 0-23-3-31C134-8 116 4 85 4 32 4 16-35 15-94c0-66 23-100 70-100zm9 24c-40 0-46 34-46 75 0 40 6 74 45 74 42 0 51-32 51-76 0-42-9-74-50-73" id="q"/><path fill="#333" d="M100-194c63 0 86 42 84 106H49c0 40 14 67 53 68 26 1 43-12 49-29l28 8c-11 28-37 45-77 45C44 4 14-33 15-96c1-61 26-98 85-98zm52 81c6-60-76-77-97-28-3 7-6 17-6 28h103" id="r"/><g id="a"><use transform="matrix(0.06172839506172839,0,0,0.06172839506172839,0,0)" xlink:href="#o"/><use transform="matrix(0.06172839506172839,0,0,0.06172839506172839,17.28395061728395,0)" xlink:href="#p"/><use transform="matrix(0.06172839506172839,0,0,0.06172839506172839,24.629629629629626,0)" xlink:href="#q"/><use transform="matrix(0.06172839506172839,0,0,0.06172839506172839,36.9753086419753,0)" xlink:href="#r"/><use transform="matrix(0.06172839506172839,0,0,0.06172839506172839,49.32098765432098,0)" xlink:href="#p"/><use transform="matrix(0.06172839506172839,0,0,0.06172839506172839,56.66666666666666,0)" xlink:href="#r"/><use transform="matrix(0.06172839506172839,0,0,0.06172839506172839,69.01234567901234,0)" xlink:href="#q"/></g><path fill="#333" d="M30-248c87 1 191-15 191 75 0 78-77 80-158 76V0H30v-248zm33 125c57 0 124 11 124-50 0-59-68-47-124-48v98" id="s"/><path fill="#333" d="M141-36C126-15 110 5 73 4 37 3 15-17 15-53c-1-64 63-63 125-63 3-35-9-54-41-54-24 1-41 7-42 31l-33-3c5-37 33-52 76-52 45 0 72 20 72 64v82c-1 20 7 32 28 27v20c-31 9-61-2-59-35zM48-53c0 20 12 33 32 33 41-3 63-29 60-74-43 2-92-5-92 41" id="t"/><path fill="#333" d="M24-231v-30h32v30H24zM24 0v-190h32V0H24" id="u"/><g id="b"><use transform="matrix(0.06172839506172837,0,0,0.06172839506172837,0,0)" xlink:href="#s"/><use transform="matrix(0.06172839506172837,0,0,0.06172839506172837,14.81481481481481,0)" xlink:href="#t"/><use transform="matrix(0.06172839506172837,0,0,0.06172839506172837,27.160493827160483,0)" xlink:href="#u"/><use transform="matrix(0.06172839506172837,0,0,0.06172839506172837,32.037037037037024,0)" xlink:href="#q"/></g><path fill="#333" d="M212-179c-10-28-35-45-73-45-59 0-87 40-87 99 0 60 29 101 89 101 43 0 62-24 78-52l27 14C228-24 195 4 139 4 59 4 22-46 18-125c-6-104 99-153 187-111 19 9 31 26 39 46" id="v"/><path fill="#333" d="M100-194c62-1 85 37 85 99 1 63-27 99-86 99S16-35 15-95c0-66 28-99 85-99zM99-20c44 1 53-31 53-75 0-43-8-75-51-75s-53 32-53 75 10 74 51 75" id="w"/><path fill="#333" d="M117-194c89-4 53 116 60 194h-32v-121c0-31-8-49-39-48C34-167 62-67 57 0H25l-1-190h30c1 10-1 24 2 32 11-22 29-35 61-36" id="x"/><path fill="#333" d="M101-234c-31-9-42 10-38 44h38v23H63V0H32v-167H5v-23h27c-7-52 17-82 69-68v24" id="y"/><path fill="#333" d="M210-169c-67 3-38 105-44 169h-31v-121c0-29-5-50-35-48C34-165 62-65 56 0H25l-1-190h30c1 10-1 24 2 32 10-44 99-50 107 0 11-21 27-35 58-36 85-2 47 119 55 194h-31v-121c0-29-5-49-35-48" id="z"/><g id="c"><use transform="matrix(0.06172839506172839,0,0,0.06172839506172839,0,0)" xlink:href="#v"/><use transform="matrix(0.06172839506172839,0,0,0.06172839506172839,15.987654320987653,0)" xlink:href="#w"/><use transform="matrix(0.06172839506172839,0,0,0.06172839506172839,28.333333333333332,0)" xlink:href="#x"/><use transform="matrix(0.06172839506172839,0,0,0.06172839506172839,40.67901234567901,0)" xlink:href="#y"/><use transform="matrix(0.06172839506172839,0,0,0.06172839506172839,46.851851851851855,0)" xlink:href="#u"/><use transform="matrix(0.06172839506172839,0,0,0.06172839506172839,51.7283950617284,0)" xlink:href="#p"/><use transform="matrix(0.06172839506172839,0,0,0.06172839506172839,59.074074074074076,0)" xlink:href="#z"/><use transform="matrix(0.06172839506172839,0,0,0.06172839506172839,77.53086419753086,0)" xlink:href="#r"/><use transform="matrix(0.06172839506172839,0,0,0.06172839506172839,89.87654320987654,0)" xlink:href="#q"/></g><path fill="#333" d="M205 0l-28-72H64L36 0H1l101-248h38L239 0h-34zm-38-99l-47-123c-12 45-31 82-46 123h93" id="A"/><path fill="#333" d="M96-169c-40 0-48 33-48 73s9 75 48 75c24 0 41-14 43-38l32 2c-6 37-31 61-74 61-59 0-76-41-82-99-10-93 101-131 147-64 4 7 5 14 7 22l-32 3c-4-21-16-35-41-35" id="B"/><path fill="#333" d="M145-31C134-9 116 4 85 4 32 4 16-35 15-94c0-59 17-99 70-100 32-1 48 14 60 33 0-11-1-24 2-32h30l-1 268h-32zM93-21c41 0 51-33 51-76s-8-73-50-73c-40 0-46 35-46 75s5 74 45 74" id="C"/><path fill="#333" d="M84 4C-5 8 30-112 23-190h32v120c0 31 7 50 39 49 72-2 45-101 50-169h31l1 190h-30c-1-10 1-25-2-33-11 22-28 36-60 37" id="D"/><g id="d"><use transform="matrix(0.06172839506172839,0,0,0.06172839506172839,0,0)" xlink:href="#A"/><use transform="matrix(0.06172839506172839,0,0,0.06172839506172839,14.814814814814813,0)" xlink:href="#B"/><use transform="matrix(0.06172839506172839,0,0,0.06172839506172839,25.925925925925924,0)" xlink:href="#C"/><use transform="matrix(0.06172839506172839,0,0,0.06172839506172839,38.2716049382716,0)" xlink:href="#D"/><use transform="matrix(0.06172839506172839,0,0,0.06172839506172839,50.61728395061728,0)" xlink:href="#u"/><use transform="matrix(0.06172839506172839,0,0,0.06172839506172839,55.49382716049382,0)" xlink:href="#p"/><use transform="matrix(0.06172839506172839,0,0,0.06172839506172839,62.8395061728395,0)" xlink:href="#r"/><use transform="matrix(0.06172839506172839,0,0,0.06172839506172839,75.18518518518518,0)" xlink:href="#q"/></g><path fill="#333" d="M115-194c55 1 70 41 70 98S169 2 115 4C84 4 66-9 55-30l1 105H24l-1-265h31l2 30c10-21 28-34 59-34zm-8 174c40 0 45-34 45-75s-6-73-45-74c-42 0-51 32-51 76 0 43 10 73 51 73" id="E"/><path fill="#333" d="M24 0v-261h32V0H24" id="F"/><path fill="#333" d="M59-47c-2 24 18 29 38 22v24C64 9 27 4 27-40v-127H5v-23h24l9-43h21v43h35v23H59v120" id="G"/><g id="e"><use transform="matrix(0.06172839506172839,0,0,0.06172839506172839,0,0)" xlink:href="#v"/><use transform="matrix(0.06172839506172839,0,0,0.06172839506172839,15.987654320987653,0)" xlink:href="#w"/><use transform="matrix(0.06172839506172839,0,0,0.06172839506172839,28.333333333333332,0)" xlink:href="#z"/><use transform="matrix(0.06172839506172839,0,0,0.06172839506172839,46.79012345679012,0)" xlink:href="#E"/><use transform="matrix(0.06172839506172839,0,0,0.06172839506172839,59.1358024691358,0)" xlink:href="#F"/><use transform="matrix(0.06172839506172839,0,0,0.06172839506172839,64.01234567901234,0)" xlink:href="#r"/><use transform="matrix(0.06172839506172839,0,0,0.06172839506172839,76.35802469135803,0)" xlink:href="#G"/><use transform="matrix(0.06172839506172839,0,0,0.06172839506172839,82.53086419753086,0)" xlink:href="#r"/><use transform="matrix(0.06172839506172839,0,0,0.06172839506172839,94.87654320987654,0)" xlink:href="#q"/></g><g id="f"><use transform="matrix(0.06172839506172839,0,0,0.06172839506172839,0,0)" xlink:href="#v"/><use transform="matrix(0.06172839506172839,0,0,0.06172839506172839,15.987654320987653,0)" xlink:href="#t"/><use transform="matrix(0.06172839506172839,0,0,0.06172839506172839,28.333333333333332,0)" xlink:href="#x"/><use transform="matrix(0.06172839506172839,0,0,0.06172839506172839,40.67901234567901,0)" xlink:href="#B"/><use transform="matrix(0.06172839506172839,0,0,0.06172839506172839,51.79012345679013,0)" xlink:href="#r"/><use transform="matrix(0.06172839506172839,0,0,0.06172839506172839,64.13580246913581,0)" xlink:href="#F"/><use transform="matrix(0.06172839506172839,0,0,0.06172839506172839,69.01234567901236,0)" xlink:href="#r"/><use transform="matrix(0.06172839506172839,0,0,0.06172839506172839,81.35802469135804,0)" xlink:href="#q"/></g><path fill="#333" d="M87 75C49 33 22-17 22-94c0-76 28-126 65-167h31c-38 41-64 92-64 168S80 34 118 75H87" id="H"/><g id="g"><use transform="matrix(0.07407407407407407,0,0,0.07407407407407407,0,0)" xlink:href="#B"/><use transform="matrix(0.07407407407407407,0,0,0.07407407407407407,13.333333333333332,0)" xlink:href="#t"/><use transform="matrix(0.07407407407407407,0,0,0.07407407407407407,28.148148148148145,0)" xlink:href="#x"/><use transform="matrix(0.07407407407407407,0,0,0.07407407407407407,42.96296296296296,0)" xlink:href="#B"/><use transform="matrix(0.07407407407407407,0,0,0.07407407407407407,56.29629629629629,0)" xlink:href="#r"/><use transform="matrix(0.07407407407407407,0,0,0.07407407407407407,71.1111111111111,0)" xlink:href="#F"/><use transform="matrix(0.07407407407407407,0,0,0.07407407407407407,76.96296296296295,0)" xlink:href="#H"/></g><path fill="#333" d="M33-261c38 41 65 92 65 168S71 34 33 75H2C39 34 66-17 66-93S39-220 2-261h31" id="I"/><use transform="matrix(0.07407407407407407,0,0,0.07407407407407407,0,0)" xlink:href="#I" id="h"/><path fill="#333" d="M0 4l72-265h28L28 4H0" id="J"/><use transform="matrix(0.07407407407407407,0,0,0.07407407407407407,0,0)" xlink:href="#J" id="i"/><path fill="#333" d="M106-169C34-169 62-67 57 0H25v-261h32l-1 103c12-21 28-36 61-36 89 0 53 116 60 194h-32v-121c2-32-8-49-39-48" id="K"/><path fill="#333" d="M143 0L79-87 56-68V0H24v-261h32v163l83-92h37l-77 82L181 0h-38" id="L"/><path fill="#333" d="M127-220V0H93v-220H8v-28h204v28h-85" id="M"/><g id="j"><use transform="matrix(0.07407407407407407,0,0,0.07407407407407407,0,0)" xlink:href="#B"/><use transform="matrix(0.07407407407407407,0,0,0.07407407407407407,13.333333333333332,0)" xlink:href="#K"/><use transform="matrix(0.07407407407407407,0,0,0.07407407407407407,28.148148148148145,0)" xlink:href="#r"/><use transform="matrix(0.07407407407407407,0,0,0.07407407407407407,42.96296296296296,0)" xlink:href="#B"/><use transform="matrix(0.07407407407407407,0,0,0.07407407407407407,56.29629629629629,0)" xlink:href="#L"/><use transform="matrix(0.07407407407407407,0,0,0.07407407407407407,69.62962962962962,0)" xlink:href="#M"/><use transform="matrix(0.07407407407407407,0,0,0.07407407407407407,84.88888888888889,0)" xlink:href="#u"/><use transform="matrix(0.07407407407407407,0,0,0.07407407407407407,90.74074074074073,0)" xlink:href="#z"/><use transform="matrix(0.07407407407407407,0,0,0.07407407407407407,112.88888888888889,0)" xlink:href="#r"/><use transform="matrix(0.07407407407407407,0,0,0.07407407407407407,127.7037037037037,0)" xlink:href="#H"/></g><use transform="matrix(0.07407407407407407,0,0,0.07407407407407407,0,0)" xlink:href="#I" id="k"/><path fill="#333" d="M179-190L93 31C79 59 56 82 12 73V49c39 6 53-20 64-50L1-190h34L92-34l54-156h33" id="N"/><g id="l"><use transform="matrix(0.07407407407407407,0,0,0.07407407407407407,0,0)" xlink:href="#E"/><use transform="matrix(0.07407407407407407,0,0,0.07407407407407407,14.814814814814813,0)" xlink:href="#t"/><use transform="matrix(0.07407407407407407,0,0,0.07407407407407407,29.629629629629626,0)" xlink:href="#N"/><use transform="matrix(0.07407407407407407,0,0,0.07407407407407407,42.96296296296296,0)" xlink:href="#H"/></g><g id="m"><use transform="matrix(0.07407407407407407,0,0,0.07407407407407407,0,0)" xlink:href="#B"/><use transform="matrix(0.07407407407407407,0,0,0.07407407407407407,13.333333333333332,0)" xlink:href="#w"/><use transform="matrix(0.07407407407407407,0,0,0.07407407407407407,28.148148148148145,0)" xlink:href="#x"/><use transform="matrix(0.07407407407407407,0,0,0.07407407407407407,42.96296296296296,0)" xlink:href="#y"/><use transform="matrix(0.07407407407407407,0,0,0.07407407407407407,50.37037037037037,0)" xlink:href="#u"/><use transform="matrix(0.07407407407407407,0,0,0.07407407407407407,56.22222222222221,0)" xlink:href="#p"/><use transform="matrix(0.07407407407407407,0,0,0.07407407407407407,65.03703703703702,0)" xlink:href="#z"/><use transform="matrix(0.07407407407407407,0,0,0.07407407407407407,87.18518518518516,0)" xlink:href="#H"/></g><g id="n"><use transform="matrix(0.07407407407407407,0,0,0.07407407407407407,0,0)" xlink:href="#B"/><use transform="matrix(0.07407407407407407,0,0,0.07407407407407407,13.333333333333332,0)" xlink:href="#K"/><use transform="matrix(0.07407407407407407,0,0,0.07407407407407407,28.148148148148145,0)" xlink:href="#r"/><use transform="matrix(0.07407407407407407,0,0,0.07407407407407407,42.96296296296296,0)" xlink:href="#B"/><use transform="matrix(0.07407407407407407,0,0,0.07407407407407407,56.29629629629629,0)" xlink:href="#L"/><use transform="matrix(0.07407407407407407,0,0,0.07407407407407407,69.62962962962962,0)" xlink:href="#M"/><use transform="matrix(0.07407407407407407,0,0,0.07407407407407407,84.88888888888889,0)" xlink:href="#u"/><use transform="matrix(0.07407407407407407,0,0,0.07407407407407407,90.74074074074073,0)" xlink:href="#z"/><use transform="matrix(0.07407407407407407,0,0,0.07407407407407407,112.88888888888889,0)" xlink:href="#r"/><use transform="matrix(0.07407407407407407,0,0,0.07407407407407407,127.7037037037037,0)" xlink:href="#H"/></g></defs></g></svg>